<?xml version="1.0" encoding="iso-8859-1"?>
<!-- Generator: Adobe Illustrator 19.0.0, SVG Export Plug-In . SVG Version: 6.00 Build 0)  -->
<svg xmlns="http://www.w3.org/2000/svg" xmlns:xlink="http://www.w3.org/1999/xlink" version="1.1" id="Layer_1" x="0px" y="0px" viewBox="0 0 512 512" style="enable-background:new 0 0 512 512;" xml:space="preserve" width="512px" height="512px">
<g>
	<g>
		<path d="M437,0H75C33.645,0,0,33.645,0,75v362c0,41.355,33.645,75,75,75h362c41.355,0,75-33.645,75-75V75    C512,33.645,478.355,0,437,0z M482,437c0,24.813-20.187,45-45,45H75c-24.813,0-45-20.187-45-45V75c0-24.813,20.187-45,45-45h362    c24.813,0,45,20.187,45,45V437z" fill="#b3b3b2"/>
	</g>
</g>
<g>
	<g>
		<path d="M286,91H166c-8.284,0-15,6.716-15,15v301c0,8.284,6.716,15,15,15h60c8.284,0,15-6.716,15-15V301h45    c57.897,0,105-47.103,105-105C391,138.103,343.897,91,286,91z M286,271h-60c-8.284,0-15,6.716-15,15v106h-30V121h105    c41.355,0,75,33.645,75,75S327.355,271,286,271z" fill="#b3b3b2"/>
	</g>
</g>
<g>
	<g>
		<path d="M286,151h-60c-8.284,0-15,6.716-15,15v60c0,8.284,6.716,15,15,15h60c24.813,0,45-20.187,45-45S310.813,151,286,151z     M286,211h-45v-30h45c8.271,0,15,6.729,15,15S294.271,211,286,211z" fill="#b3b3b2"/>
	</g>
</g>
<g>
</g>
<g>
</g>
<g>
</g>
<g>
</g>
<g>
</g>
<g>
</g>
<g>
</g>
<g>
</g>
<g>
</g>
<g>
</g>
<g>
</g>
<g>
</g>
<g>
</g>
<g>
</g>
<g>
</g>
</svg>
